<svg width="201" height="54" viewBox="0 0 201 54" fill="none" xmlns="http://www.w3.org/2000/svg">
<g clip-path="url(#clip0_266_470)">
<path fill-rule="evenodd" clip-rule="evenodd" d="M196.396 27.821C195.775 27.821 195.141 27.821 194.702 27.7644L200.585 0.147247H161.39L160.173 5.87263C158.775 5.64977 157.797 6.22107 157.5 7.13501C157.209 8.04822 156.158 11.9421 156.158 14.5046C156.158 18.5255 157.17 19.9991 157.17 19.9991L149.98 53.8454H189.171L193.904 31.5791C199.267 31.3947 200.772 29.7215 200.772 28.7436C200.772 27.384 198.088 27.821 196.396 27.821Z" fill="#F0BD2D"/>
<path fill-rule="evenodd" clip-rule="evenodd" d="M178.807 24.781C178.807 24.781 185.797 31.7797 195.562 30.5856C199.1 30.1442 199.884 29.2114 199.773 28.7838C199.666 28.3729 198.456 28.5472 197.276 28.5958C196.592 28.6343 190.715 29.3994 182.887 23.4512C179.841 22.6584 178.807 24.781 178.807 24.781ZM156.116 39.7046L163.804 37.0376L174.447 44.5763L170.327 47.1563L176.414 52.2181L176.502 50.4309L178.341 45.9098L178.198 42.0124L174.328 35.7258L175.077 32.9956L174.822 29.9337C164.816 29.9562 160.524 25.5788 158.158 21.9942L154.485 39.4622L156.116 39.7046ZM178.239 16.2826L176.04 14.1782L172.766 17.042L178.239 16.2826ZM187.738 20.6563C188.398 21.873 188.628 23.5528 188.82 26.1255C186.53 25.0787 182.693 21.9906 182.693 21.9906C178.325 21.118 176.822 24.6148 176.822 24.6148L177.809 25.4917C177.436 27.2013 176.224 28.0637 176.224 28.0637C156.725 28.0637 157.152 15.9044 157.152 14.5041C157.152 11.9423 158.158 8.20017 158.477 7.3806C158.799 6.56829 160.267 6.83616 160.267 6.83616L169.805 8.22631L171.812 7.12726C171.812 7.12726 174.749 6.90875 177.95 7.81108C177.95 7.81108 182.873 11.9322 184.775 14.9368L184.63 16.4939C184.63 16.4939 187.135 19.5268 187.738 20.6563ZM185.803 44.6025C186.558 44.6025 187.078 44.1451 187.078 44.1451C187.155 43.0236 186.896 42.4428 186.896 42.4428C185.993 42.6795 185.257 42.3601 185.158 41.4374C185.034 40.1983 187.835 34.7749 188.551 32.9659C188.833 32.2595 188.857 31.2512 188.857 31.2512C185.867 30.836 183.284 29.2375 183.284 29.2375L183.575 31.1336C183.694 32.2973 182.185 38.4618 182.494 41.502C182.494 41.502 182.755 44.6148 185.803 44.6025ZM163.685 43.7727L163.663 38.3631L169.501 42.461L167.806 50.8011L168.591 52.42H161.548L160.749 50.8157L163.685 43.7727Z" fill="#003B65"/>
<path fill-rule="evenodd" clip-rule="evenodd" d="M134.335 40.077C135.293 40.077 135.951 40.4595 136.341 41.245C136.729 42.0283 136.763 43.2042 136.45 44.7664C136.278 45.5802 136.052 46.2923 135.76 46.8978C135.477 47.501 135.147 48.0062 134.771 48.391C134.398 48.7961 133.995 49.0915 133.556 49.2773C133.111 49.4777 132.66 49.5648 132.2 49.5648C131.937 49.5648 131.68 49.5321 131.415 49.4821C131.148 49.4211 130.905 49.3623 130.695 49.2773C130.472 49.1989 130.306 49.1176 130.174 49.0327C130.047 48.9441 129.986 48.8687 129.998 48.8084C130.014 48.7815 130.018 48.7496 130.037 48.7169C130.037 48.6828 130.059 48.6443 130.095 48.6117L130.409 48.0774C130.443 48.0229 130.496 48.0062 130.559 48.0062C130.543 48.0062 130.592 48.0229 130.703 48.0549C130.833 48.089 130.973 48.1318 131.163 48.1747C131.347 48.2335 131.55 48.2734 131.761 48.2981C131.98 48.3344 132.181 48.3525 132.374 48.3525C132.645 48.3525 132.915 48.2937 133.179 48.1827C133.445 48.0774 133.69 47.8792 133.914 47.6041C134.141 47.3406 134.347 46.9863 134.546 46.537C134.73 46.0876 134.901 45.5316 135.038 44.8673C134.901 45.1809 134.738 45.4241 134.57 45.6245C134.398 45.8161 134.22 45.9722 134.04 46.0876C133.857 46.1994 133.657 46.2764 133.455 46.3228C133.248 46.3751 133.036 46.3838 132.822 46.3838C132.3 46.3838 131.887 46.2989 131.561 46.1406C131.235 45.9722 131 45.7544 130.838 45.4641C130.666 45.1897 130.584 44.8594 130.559 44.4913C130.543 44.1088 130.569 43.7117 130.663 43.2812C130.753 42.8355 130.893 42.4268 131.076 42.0319C131.276 41.6435 131.512 41.2994 131.808 41.0185C132.109 40.723 132.465 40.498 132.893 40.3318C133.305 40.1503 133.797 40.077 134.335 40.077ZM126.936 40.0669C127.424 40.0669 127.839 40.1199 128.165 40.2411C128.494 40.3543 128.754 40.5126 128.938 40.7231C129.13 40.9293 129.245 41.1804 129.292 41.4657C129.346 41.759 129.329 42.0871 129.259 42.4269C129.173 42.8704 128.97 43.2522 128.649 43.5644C128.335 43.8881 127.896 44.1495 127.375 44.3614C127.934 44.5843 128.335 44.8892 128.573 45.3022C128.811 45.6993 128.875 46.1995 128.75 46.7802C128.573 47.6869 128.154 48.3664 127.499 48.8484C126.827 49.3261 125.993 49.5547 124.985 49.5547C123.939 49.5547 123.194 49.3159 122.745 48.8382C122.298 48.3562 122.182 47.6659 122.356 46.7657C122.476 46.1995 122.735 45.7095 123.145 45.3022C123.541 44.8892 124.068 44.572 124.735 44.3433C124.287 44.1567 123.972 43.9005 123.779 43.597C123.59 43.2813 123.535 42.8922 123.635 42.4312C123.712 42.0871 123.836 41.7706 124.002 41.4694C124.174 41.1804 124.398 40.9293 124.663 40.7231C124.943 40.5126 125.259 40.3543 125.639 40.2411C126.01 40.1155 126.445 40.0669 126.936 40.0669ZM105.696 42.5889C105.921 42.5889 106.13 42.6107 106.319 42.6535C106.52 42.6934 106.698 42.745 106.856 42.8154C107.012 42.8705 107.153 42.9453 107.269 43.0179C107.386 43.0927 107.474 43.1616 107.528 43.2139C107.569 43.2604 107.59 43.301 107.587 43.3438C107.578 43.3961 107.544 43.4687 107.471 43.5486L107.105 43.9507C107.057 43.9936 107.006 44.0211 106.945 44.0073C106.886 44.0073 106.83 43.9936 106.765 43.9848C106.656 43.9427 106.484 43.8701 106.287 43.7874C106.087 43.7003 105.842 43.6654 105.555 43.6654C105.236 43.6654 104.956 43.7264 104.714 43.8658C104.476 44.0037 104.268 44.1852 104.094 44.3957C103.924 44.6171 103.786 44.8756 103.673 45.163C103.56 45.4563 103.468 45.7575 103.413 46.0733C103.344 46.3913 103.313 46.6947 103.3 46.9967C103.282 47.2798 103.326 47.5346 103.405 47.7531C103.493 47.9782 103.618 48.1502 103.808 48.2816C103.986 48.405 104.245 48.4783 104.547 48.4783C104.802 48.4783 105.034 48.4333 105.259 48.3665C105.476 48.2939 105.692 48.2228 105.911 48.1604C105.984 48.1219 106.061 48.1175 106.112 48.1175C106.182 48.1175 106.217 48.1379 106.245 48.1821L106.421 48.5872C106.484 48.7128 106.455 48.8217 106.354 48.9168C106.2 49.0503 105.943 49.1984 105.553 49.3342C105.172 49.4779 104.705 49.5505 104.151 49.5505C103.56 49.5505 103.088 49.4474 102.738 49.2594C102.394 49.0649 102.139 48.8079 101.971 48.4921C101.811 48.1749 101.73 47.8003 101.711 47.3749C101.711 46.9619 101.756 46.5125 101.856 46.0603C101.953 45.5899 102.096 45.1507 102.276 44.7304C102.454 44.3071 102.699 43.9347 103.008 43.6248C103.3 43.301 103.673 43.0578 104.115 42.8705C104.547 42.6862 105.077 42.5889 105.696 42.5889ZM111.632 42.593C112.018 42.5967 112.371 42.6496 112.689 42.7607C113.01 42.8703 113.272 43.0402 113.471 43.271C113.674 43.4953 113.812 43.7872 113.879 44.1305C113.956 44.4812 113.937 44.8753 113.846 45.337C113.796 45.5795 113.731 45.7922 113.651 45.9483C113.573 46.1101 113.463 46.2401 113.334 46.3344C113.201 46.4339 113.037 46.5123 112.857 46.5537C112.664 46.5943 112.435 46.6139 112.179 46.6139H109.517C109.479 46.8869 109.473 47.1286 109.493 47.3609C109.509 47.5874 109.564 47.7776 109.665 47.9438C109.756 48.1101 109.893 48.2494 110.07 48.3344C110.25 48.4331 110.489 48.4781 110.77 48.4781C111.021 48.4781 111.28 48.4476 111.535 48.3845C111.798 48.3162 112.082 48.2494 112.359 48.1601C112.504 48.118 112.589 48.1013 112.621 48.118C112.654 48.1384 112.689 48.1601 112.689 48.1827L112.872 48.5877C112.944 48.7126 112.912 48.8265 112.804 48.9173C112.729 48.9979 112.614 49.0654 112.452 49.1372C112.292 49.2185 112.108 49.2853 111.891 49.3463C111.671 49.4029 111.44 49.4472 111.175 49.4893C110.926 49.5321 110.661 49.5503 110.377 49.5503C109.787 49.5503 109.305 49.4472 108.953 49.2672C108.601 49.0813 108.338 48.8265 108.176 48.5122C108.01 48.1986 107.922 47.8386 107.912 47.4277C107.901 47.0154 107.946 46.59 108.03 46.1406C108.121 45.6405 108.272 45.1897 108.469 44.7527C108.657 44.3251 108.91 43.9505 109.204 43.6391C109.493 43.3052 109.843 43.0583 110.238 42.8703C110.647 42.6859 111.108 42.593 111.632 42.593ZM87.124 40.0323C87.4072 40.0323 87.6924 40.0628 87.9654 40.1071C88.2514 40.1499 88.5164 40.2044 88.745 40.2813C88.9817 40.3503 89.1799 40.4105 89.3374 40.4838C89.5094 40.5521 89.6111 40.6152 89.6575 40.666C89.6945 40.6944 89.7163 40.7328 89.7083 40.7793C89.7025 40.8199 89.6779 40.8969 89.6111 41L89.2873 41.5321C89.2633 41.5807 89.2125 41.609 89.1436 41.5952C89.0826 41.5851 89.0122 41.5727 88.9534 41.5524C88.8786 41.5321 88.769 41.5038 88.6151 41.4617C88.4692 41.429 88.2993 41.3985 88.1099 41.3702C87.9233 41.3397 87.7266 41.3078 87.5291 41.2816C87.3244 41.257 87.132 41.2453 86.9542 41.2453C86.6123 41.2453 86.3125 41.2896 86.0838 41.3746C85.8428 41.4617 85.6446 41.5727 85.4885 41.7041C85.3346 41.8399 85.2091 41.9727 85.1307 42.1273C85.0537 42.2754 84.9971 42.4271 84.9702 42.5665C84.9114 42.7974 84.9383 43.0079 85.0537 43.2032C85.1568 43.4042 85.4239 43.5966 85.8225 43.7585L86.976 44.226C87.3135 44.3617 87.6177 44.5273 87.8442 44.7298C88.0852 44.928 88.2688 45.1508 88.4133 45.394C88.544 45.6365 88.6238 45.8869 88.6594 46.1628C88.7008 46.4343 88.6986 46.7087 88.6332 46.9961C88.5607 47.3896 88.4089 47.7351 88.1824 48.0407C87.9436 48.3522 87.6641 48.62 87.3222 48.848C86.9839 49.065 86.5934 49.2327 86.1542 49.3459C85.7172 49.4781 85.2519 49.5325 84.7561 49.5325C84.4788 49.5325 84.2095 49.5064 83.93 49.4635C83.649 49.4207 83.3979 49.3663 83.1569 49.3118C82.9144 49.2465 82.7039 49.1681 82.534 49.1035C82.3576 49.0331 82.2386 48.9554 82.1674 48.9068C82.1275 48.8567 82.1108 48.8117 82.113 48.7688C82.1275 48.7311 82.1638 48.6599 82.2161 48.5692L82.5355 48.0349C82.5638 47.9841 82.6211 47.9616 82.6857 47.9739C82.7583 47.9776 82.8193 47.9841 82.8817 48.0124C82.9645 48.0349 83.0799 48.0734 83.244 48.1017C83.4022 48.138 83.5859 48.1743 83.787 48.1946C83.9772 48.2331 84.1833 48.2571 84.3895 48.2738C84.6065 48.2977 84.8004 48.3122 84.9971 48.3122C85.5619 48.3122 86.0395 48.2048 86.4199 47.9979C86.8141 47.7779 87.0369 47.4839 87.1059 47.1282C87.1618 46.8248 87.1015 46.5533 86.9113 46.3268C86.7153 46.096 86.4664 45.9138 86.1731 45.7962L85.0109 45.3069C84.7278 45.1893 84.4751 45.0456 84.2479 44.8815C84.0214 44.7233 83.8334 44.5316 83.6933 44.3254C83.5481 44.1091 83.4567 43.8703 83.4022 43.6104C83.3456 43.344 83.3637 43.0464 83.4305 42.7139C83.5198 42.295 83.6752 41.927 83.9017 41.5952C84.1347 41.257 84.4221 40.9782 84.7561 40.7466C85.0944 40.5187 85.4602 40.3401 85.8631 40.2211C86.2718 40.0969 86.687 40.0323 87.124 40.0323ZM143.83 40.2407C143.991 40.2407 144.066 40.3155 144.029 40.4839L142.87 46.0735H143.685C143.857 46.0735 143.931 46.1628 143.884 46.3349L143.756 46.9621C143.74 47.1363 143.635 47.2176 143.455 47.2176H142.641L142.236 49.158C142.186 49.3344 142.097 49.4164 141.929 49.4164H140.814C140.631 49.4164 140.561 49.3301 140.595 49.158L141.004 47.2176H137.266C137.098 47.2176 137.028 47.1276 137.047 46.9621L137.077 46.8387C137.108 46.7436 137.132 46.6688 137.158 46.5897C137.189 46.5127 137.24 46.4459 137.319 46.3755L142.512 40.4389C142.651 40.3017 142.803 40.2407 142.967 40.2407H143.83ZM121.66 40.2937L119.823 49.1377C119.789 49.3119 119.687 49.4034 119.526 49.4034H118.422C118.24 49.4034 118.168 49.3119 118.205 49.1377L119.663 42.1013L117.896 42.8272C117.72 42.8925 117.655 42.8352 117.694 42.6733L117.847 41.959C117.875 41.779 117.985 41.6534 118.155 41.5844L121.452 40.15C121.626 40.0774 121.691 40.1195 121.66 40.2937ZM92.3782 42.7446C92.5503 42.7446 92.6221 42.8317 92.5858 43.003L91.6712 47.4275C91.6044 47.7455 91.5949 47.9705 91.6429 48.1012C91.6915 48.2493 91.7525 48.3074 91.8454 48.3074H91.8737C92.0399 48.3074 92.1082 48.3908 92.0784 48.5614L91.9652 49.1175C91.9289 49.299 91.8272 49.3846 91.6596 49.3846H91.5783C90.3318 49.3846 89.8338 48.7531 90.0988 47.5147L91.0302 43.003C91.0643 42.8274 91.1739 42.7446 91.3409 42.7446H92.3782ZM98.4051 42.5964C98.7426 42.5964 99.0642 42.6494 99.3437 42.7605C99.6392 42.8701 99.8794 43.032 100.062 43.2483C100.248 43.4567 100.378 43.7223 100.455 44.0338C100.526 44.343 100.528 44.6973 100.45 45.1023L99.9607 47.4376C99.894 47.7491 99.8918 47.9784 99.9382 48.1098C99.9891 48.2528 100.062 48.3124 100.143 48.3124H100.159C100.345 48.3124 100.402 48.4009 100.368 48.5694L100.248 49.1312C100.22 49.3076 100.115 49.3846 99.9607 49.3846H99.8794C98.6272 49.3846 98.1336 48.769 98.3884 47.5189L98.8014 45.5314C98.8479 45.2889 98.8718 45.0457 98.8827 44.8294C98.8878 44.5964 98.8718 44.396 98.8152 44.2341C98.7608 44.0599 98.6657 43.9241 98.5256 43.8211C98.3964 43.7223 98.2243 43.6694 98.0058 43.6694C97.1035 43.6694 96.5104 44.3292 96.2309 45.6671L95.5101 49.1312C95.4781 49.2996 95.3787 49.3846 95.2132 49.3846H94.1744C93.9951 49.3846 93.9218 49.2996 93.9588 49.1174L94.9054 44.5637C94.9598 44.3067 94.9598 44.1085 94.9112 43.9895C94.8524 43.8777 94.7863 43.8211 94.6927 43.8211H94.6745C94.5061 43.8211 94.4277 43.734 94.4669 43.5641L94.586 43.0037C94.6179 42.8316 94.7188 42.7445 94.9054 42.7445H94.978C95.2393 42.7445 95.4658 42.7728 95.64 42.8236C95.8222 42.8701 95.9681 42.9325 96.0647 43.0175C96.1743 43.1191 96.2433 43.2178 96.2854 43.3478C96.3282 43.4871 96.3442 43.6389 96.3442 43.7993H96.3703C96.6723 43.3841 96.9757 43.093 97.2734 42.8926C97.5848 42.6937 97.9536 42.5964 98.4051 42.5964ZM125.922 45.0191C125.702 45.0191 125.485 45.0634 125.285 45.1346C125.075 45.2151 124.88 45.3327 124.71 45.4852C124.534 45.6282 124.388 45.8024 124.259 46.0187C124.129 46.2234 124.038 46.4543 123.985 46.7229C123.883 47.2354 123.959 47.6361 124.202 47.9257C124.459 48.219 124.795 48.3606 125.235 48.3606C125.453 48.3606 125.653 48.3243 125.862 48.2575C126.068 48.1827 126.26 48.0775 126.438 47.9395C126.601 47.7878 126.763 47.61 126.882 47.427C127.007 47.2172 127.096 46.9966 127.147 46.7432C127.2 46.4746 127.203 46.2358 127.157 46.0187C127.12 45.8024 127.052 45.6246 126.936 45.4801C126.817 45.3327 126.676 45.218 126.504 45.1346C126.323 45.0634 126.135 45.0191 125.922 45.0191ZM141.929 42.7444H141.899L139.107 46.0735H141.239L141.929 42.7444ZM111.495 43.6652C111.258 43.6652 111.054 43.7117 110.862 43.8213C110.667 43.9164 110.511 44.0521 110.362 44.23C110.224 44.3962 110.1 44.5879 109.999 44.8231C109.893 45.0459 109.807 45.2884 109.742 45.5374L111.736 45.5454C111.94 45.5454 112.071 45.5272 112.15 45.4684C112.235 45.4241 112.295 45.3065 112.326 45.1105C112.365 44.9203 112.379 44.7381 112.365 44.5639C112.351 44.3962 112.295 44.238 112.223 44.1088C112.15 43.973 112.056 43.8699 111.94 43.7872C111.805 43.708 111.662 43.6652 111.495 43.6652ZM134.21 41.2813C133.888 41.2813 133.613 41.3401 133.384 41.4577C133.162 41.5731 132.97 41.7125 132.816 41.915C132.654 42.1074 132.532 42.3215 132.439 42.5705C132.336 42.8231 132.257 43.0663 132.219 43.3255C132.157 43.5701 132.119 43.8213 132.119 44.0478C132.109 44.2685 132.15 44.4688 132.219 44.6227C132.293 44.7991 132.422 44.932 132.583 45.0234C132.751 45.1309 132.983 45.1751 133.287 45.1751C133.572 45.1751 133.823 45.1142 134.018 44.9915C134.22 44.8673 134.398 44.6975 134.546 44.4913C134.688 44.2866 134.805 44.0478 134.901 43.769C134.996 43.512 135.064 43.2137 135.133 42.9023C135.175 42.625 135.183 42.3861 135.151 42.188C135.117 41.9774 135.048 41.8156 134.954 41.6798C134.857 41.5419 134.755 41.441 134.615 41.3829C134.482 41.3139 134.347 41.2813 134.21 41.2813ZM125.759 41.6015C125.479 41.8301 125.32 42.1009 125.259 42.4225C125.22 42.6004 125.218 42.7688 125.243 42.9328C125.275 43.0925 125.327 43.2181 125.413 43.3437C125.493 43.4686 125.607 43.5644 125.732 43.6312C125.86 43.7001 126.01 43.7379 126.186 43.7379C126.334 43.7379 126.495 43.7074 126.655 43.6428C126.812 43.5644 126.957 43.4787 127.092 43.3619C127.23 43.2522 127.339 43.1194 127.434 42.9575C127.535 42.7935 127.594 42.6105 127.638 42.4269C127.713 42.0726 127.647 41.7917 127.458 41.5812C127.272 41.3706 127.007 41.269 126.676 41.269C126.334 41.2574 126.026 41.3786 125.759 41.6015ZM92.9626 39.9374C93.1346 39.9374 93.2036 40.0289 93.1608 40.2002L92.9466 41.2187C92.9023 41.382 92.8051 41.4612 92.6381 41.4612H91.6087C91.4229 41.4612 91.3561 41.382 91.3844 41.2187L91.6087 40.1901C91.6429 40.0202 91.7481 39.9374 91.9289 39.9374H92.9626Z" fill="#003B65"/>
<path fill-rule="evenodd" clip-rule="evenodd" d="M24.7378 18.7789C25.2256 18.7789 25.4115 19.0177 25.3084 19.4968L22.5056 32.3624C22.3234 33.2451 22.2994 33.8723 22.4446 34.2505C22.5687 34.6389 22.7604 34.8233 23.0028 34.8233H23.074C23.5538 34.8233 23.7462 35.0665 23.6409 35.5376L23.3273 37.0983C23.2242 37.5782 22.9448 37.8185 22.4852 37.8185H22.2711C18.7779 37.8083 17.3972 36.0741 18.1217 32.6107L20.976 19.4925C21.0668 19.0177 21.3615 18.7789 21.8501 18.7789H24.7378ZM98.5893 18.2161C99.8292 18.2161 100.883 18.428 101.741 18.8694C102.604 19.2926 103.278 19.9808 103.78 20.91H103.855L104.448 19.4059C104.543 19.1431 104.644 18.9609 104.761 18.8556C104.883 18.7416 105.073 18.6894 105.34 18.6894H107.893C108.375 18.6894 108.572 18.9384 108.465 19.4138L105.875 32.2184C105.699 32.9879 105.689 33.528 105.844 33.8583C105.992 34.1734 106.184 34.3374 106.431 34.3374H106.503C106.99 34.3374 107.182 34.5864 107.072 35.0539L106.751 36.6328C106.66 37.1119 106.366 37.3551 105.913 37.3551H105.689C104.178 37.3507 103.153 37.0894 102.59 36.5617C102.033 36.0434 101.767 35.3269 101.795 34.4086H101.72C100.722 35.6027 99.6332 36.4702 98.447 37.0074C97.2608 37.5388 95.968 37.8182 94.5815 37.8182C93.5412 37.8081 92.5859 37.6484 91.7242 37.3246C90.848 37.003 90.1439 36.4484 89.6031 35.6847C89.0506 34.9225 88.6986 33.9106 88.5323 32.6555C88.3748 31.3952 88.4815 29.8309 88.872 27.942C89.2553 26.0945 89.7889 24.5505 90.4575 23.3034C91.1275 22.0613 91.8984 21.053 92.7579 20.3125C93.6225 19.5576 94.5495 19.0175 95.5368 18.6894C96.5327 18.3758 97.5505 18.2161 98.5893 18.2161ZM49.2345 18.1798C50.7865 18.1798 52.104 18.3714 53.1682 18.7518C54.2325 19.1387 54.9315 19.5271 55.2408 19.938C55.2836 20.0113 55.3134 20.1165 55.3526 20.2683C55.378 20.4076 55.2727 20.608 55.0361 20.8708L54.0205 22.0206C53.9109 22.1869 53.765 22.2573 53.5893 22.221C53.4129 22.1825 53.2329 22.1448 53.0666 22.0911C52.4496 21.8464 51.8144 21.6417 51.1749 21.4639C50.5353 21.2838 49.8225 21.1931 49.0414 21.1931C47.9554 21.1931 47.1191 21.4072 46.5667 21.8348C45.9939 22.2696 45.6295 22.8322 45.4734 23.5306C45.3965 23.9306 45.4415 24.2935 45.5954 24.5991C45.7689 24.9127 46.0832 25.1392 46.5587 25.2866L50.56 26.5076C52.0409 26.9649 52.986 27.6328 53.4129 28.5213C53.8259 29.4033 53.8927 30.5452 53.6074 31.931C53.4013 32.9124 53.0122 33.7625 52.4496 34.4732C51.8776 35.194 51.1988 35.8023 50.3996 36.2923C49.596 36.7802 48.722 37.1504 47.7623 37.3856C46.7997 37.6222 45.8197 37.7391 44.8281 37.7391C44.055 37.7391 43.3145 37.6912 42.63 37.5918C41.9418 37.4988 41.3226 37.3689 40.7578 37.2114C40.1916 37.0553 39.7364 36.876 39.3742 36.6589C39.012 36.4441 38.763 36.2176 38.633 35.9766C38.4632 35.663 38.5016 35.353 38.7652 35.0394L39.7887 33.8982C39.9121 33.7806 40.0682 33.7139 40.2584 33.732C40.4384 33.7443 40.5909 33.7806 40.7382 33.8191C41.4017 34.0645 42.0921 34.2685 42.8144 34.4507C43.5309 34.6394 44.3366 34.7222 45.2411 34.7265C45.9896 34.7265 46.6211 34.6532 47.1191 34.5138C47.6251 34.3701 48.0403 34.1857 48.3474 33.9549C48.653 33.724 48.8758 33.4757 49.0312 33.1738C49.1793 32.9001 49.2925 32.6075 49.3557 32.3193C49.4668 31.7756 49.3412 31.3488 48.9869 31.0512C48.6247 30.7455 47.9612 30.4319 46.9834 30.0915L44.0187 29.1587C42.7599 28.7442 41.9222 28.0821 41.5092 27.145C41.0896 26.2078 41.0148 25.1472 41.25 23.9494C41.4322 23.1335 41.7277 22.3829 42.1647 21.6729C42.5959 20.9666 43.1526 20.3503 43.8263 19.8283C44.5043 19.297 45.2956 18.8919 46.2001 18.6088C47.1104 18.3228 48.1143 18.1798 49.2345 18.1798ZM39.7463 18.349C39.9851 18.349 40.1478 18.3715 40.2298 18.4165C40.3111 18.4731 40.3271 18.6248 40.2581 18.892L39.6817 21.5815C39.6207 21.8204 39.5401 21.9822 39.4349 22.065C39.3275 22.1485 39.2062 22.2007 39.0603 22.2095C38.9151 22.2211 38.7583 22.2095 38.5906 22.1746C38.4244 22.1383 38.2589 22.118 38.0927 22.118C35.7857 22.118 34.3788 23.2729 33.8953 25.5966L31.4649 36.6975C31.3597 37.1897 31.0788 37.422 30.6171 37.422L27.7068 37.4161C27.1951 37.4161 26.994 37.1809 27.0934 36.6975L29.8904 23.7651C30.0625 22.9978 30.0661 22.4497 29.9289 22.1296C29.7772 21.8087 29.5768 21.6461 29.3336 21.6461H29.2589C28.7776 21.6418 28.5808 21.4073 28.6883 20.9275L29.0041 19.3391C29.1115 18.8695 29.4004 18.6248 29.8904 18.6248H30.1046C31.6109 18.6292 32.6613 18.8092 33.2478 19.1751C33.8228 19.5272 34.1204 20.0455 34.1284 20.7177H34.2031C34.9842 19.8756 35.7857 19.2745 36.6154 18.9C37.4371 18.5377 38.4796 18.349 39.7463 18.349ZM139.878 11.5431L136.717 26.8921L144.374 19.2924C144.766 18.9004 145.206 18.7117 145.691 18.7117L148.713 18.7218C149.272 18.7218 149.318 18.912 148.855 19.2924L139.873 27.724L145.669 36.8061C145.918 37.1894 145.784 37.381 145.272 37.381H141.702C141.194 37.381 140.836 37.1894 140.638 36.8061L136.206 29.2238L134.678 36.6587C134.574 37.1386 134.289 37.3694 133.827 37.3694H130.956C130.44 37.3694 130.237 37.1327 130.347 36.6587L135.03 13.9982L139.878 11.5431ZM122.608 18.2664C123.578 18.2664 124.465 18.4203 125.273 18.7383C126.076 19.0432 126.756 19.5012 127.279 20.1023C127.809 20.6954 128.173 21.4373 128.381 22.3098C128.58 23.186 128.57 24.1878 128.357 25.305L126.987 31.8746C126.815 32.7646 126.795 33.4005 126.922 33.7809C127.058 34.1635 127.242 34.3522 127.493 34.3522H127.564C128.039 34.3522 128.242 34.5969 128.135 35.0803L127.821 36.6585C127.716 37.1325 127.435 37.3656 126.967 37.3656H126.756C123.229 37.3656 121.839 35.6168 122.565 32.1236L123.727 26.5209C123.868 25.827 123.943 25.17 123.96 24.5319C123.981 23.9011 123.909 23.3378 123.755 22.8666C123.605 22.3824 123.348 22.0042 122.967 21.7168C122.608 21.4278 122.108 21.2841 121.47 21.2841C118.916 21.2805 117.267 23.1497 116.517 26.8781L114.482 36.6404C114.379 37.1166 114.095 37.359 113.63 37.359L110.722 37.3554C110.209 37.3554 110.007 37.1122 110.106 36.6367L112.739 23.822C112.915 23.0626 112.923 22.5146 112.767 22.1864C112.618 21.8649 112.428 21.703 112.181 21.703H112.108C111.626 21.703 111.436 21.4678 111.529 20.9843L111.855 19.4054C111.96 18.9299 112.243 18.6897 112.739 18.6897H112.955C113.712 18.6897 114.336 18.7644 114.841 18.8857C115.338 19.025 115.738 19.2138 116.044 19.4664C116.34 19.7154 116.546 20.0333 116.655 20.4036C116.763 20.7622 116.817 21.1803 116.807 21.6384H116.891C117.733 20.4863 118.588 19.6442 119.432 19.0962C120.284 18.5372 121.345 18.2664 122.608 18.2664ZM73.4996 11.4782L78.8911 11.4928C81.7345 11.4928 83.8673 12.0757 85.272 13.2495C86.681 14.4211 87.1543 16.1089 86.7013 18.315C86.4276 19.6064 85.9013 20.6953 85.1282 21.5817C84.3595 22.4615 83.3599 23.1685 82.1338 23.6919L82.1207 23.7653C83.8375 24.0324 85.0331 24.7322 85.7075 25.8661C86.3935 27.0094 86.5598 28.3734 86.2171 29.9864C86.0051 31.0289 85.6001 32.0016 84.9889 32.8865C84.3936 33.7707 83.6531 34.5482 82.7668 35.2138C81.8899 35.8853 80.9026 36.4138 79.8079 36.776C78.719 37.1542 77.5713 37.3285 76.3939 37.3285L68.1888 37.3248C67.6712 37.3248 67.473 37.0824 67.5841 36.6062L72.6198 12.1991C72.7229 11.7236 73.0162 11.4782 73.4996 11.4782ZM66.2539 12.9478L65.1069 18.655H67.4727C67.9583 18.6594 68.1587 18.896 68.0454 19.3759L67.7398 20.774C67.6426 21.2575 67.3391 21.4985 66.8549 21.4985H64.4913L62.3767 31.832C62.1959 32.7206 62.2555 33.3478 62.5466 33.7325C62.8406 34.1172 63.1883 34.3074 63.6071 34.3074L64.2126 34.3133C64.7018 34.3133 64.8986 34.5477 64.7911 35.0239L64.4674 36.6021C64.3701 37.0819 64.0848 37.3244 63.6253 37.3244H61.915C60.2657 37.3244 59.1042 36.8634 58.4342 35.9342C57.7627 35.0138 57.627 33.6149 58.0117 31.7188L60.114 21.4905H58.2193C57.7344 21.4905 57.542 21.2531 57.6495 20.7617L57.9529 19.365C58.0473 18.8917 58.3514 18.655 58.8393 18.655H60.731L61.3568 15.429L66.2539 12.9478ZM6.15351 11.43L19.0126 11.4445C19.5018 11.4445 19.6884 11.6746 19.5948 12.1624L19.2187 13.9518C19.1171 14.4317 18.8202 14.6705 18.3389 14.6705H9.33452L7.70118 22.602H14.8857C15.3677 22.602 15.5557 22.851 15.4584 23.3235L15.0882 25.1173C14.9873 25.5964 14.6853 25.8352 14.2077 25.8352L7.02535 25.8272L4.81345 36.5615C4.71405 37.02 4.45063 37.2679 4.01992 37.2759L0.836828 37.2758C0.32868 37.2758 0.118162 37.037 0.223421 36.5535L5.27078 12.1552C5.37024 11.671 5.66932 11.43 6.15351 11.43ZM98.7708 21.2236C98.1174 21.2236 97.5084 21.3245 96.9436 21.5147C96.3825 21.7027 95.8838 22.0504 95.4439 22.5571C94.9967 23.0631 94.5873 23.7389 94.2192 24.5984C93.8446 25.4608 93.5274 26.5736 93.2465 27.942C92.9626 29.3285 92.8109 30.4617 92.8066 31.3481C92.8008 32.233 92.9263 32.9349 93.1688 33.4496C93.4105 33.9628 93.7742 34.3135 94.2475 34.5138C94.7259 34.6997 95.282 34.7911 95.944 34.7911C97.5694 34.8013 98.9225 34.2692 100.02 33.2043C101.096 32.1459 101.894 30.3891 102.39 27.942C102.88 25.5523 102.799 23.8355 102.169 22.7938C101.528 21.7513 100.388 21.2236 98.7708 21.2236ZM77.5575 25.6657H74.4266L72.6438 34.313H75.7739C76.7706 34.313 77.6142 34.1903 78.3147 33.9369C79.0109 33.6937 79.5851 33.37 80.0388 32.9736C80.4838 32.5773 80.83 32.1236 81.0885 31.6053C81.3338 31.0898 81.516 30.5636 81.6235 30.0162C81.7324 29.4906 81.7549 28.9622 81.7019 28.4482C81.6532 27.9422 81.4754 27.4668 81.1719 27.0479C80.8743 26.6348 80.4329 26.3031 79.8522 26.0461C79.2736 25.7928 78.5085 25.6657 77.5575 25.6657ZM78.2312 14.4923H76.738L75.0575 22.6444L77.2432 22.6502C77.7797 22.6502 78.3023 22.5573 78.8265 22.3671C79.3506 22.174 79.8261 21.8909 80.2674 21.5149C80.7001 21.1541 81.0747 20.7011 81.4042 20.1727C81.7323 19.6449 81.969 19.0562 82.1048 18.3861C82.3472 17.208 82.1715 16.2708 81.5705 15.5645C80.9738 14.8581 79.8522 14.5039 78.2312 14.4923ZM26.2252 11.667C26.7029 11.667 26.8989 11.9015 26.7922 12.3769L26.1809 15.2284C26.0735 15.7002 25.7984 15.9391 25.341 15.9391L22.4504 15.9347C21.951 15.9347 21.7426 15.7002 21.8421 15.2247L22.4613 12.3689C22.5644 11.9015 22.8533 11.667 23.3375 11.667H26.2252Z" fill="#003B65"/>
</g>
<defs>
<clipPath id="clip0_266_470">
<rect width="200.889" height="54" fill="white"/>
</clipPath>
</defs>
</svg>
