<svg width="36" height="36" viewBox="0 0 36 36" fill="none" xmlns="http://www.w3.org/2000/svg">
<g id="Fire" clip-path="url(#clip0_505_347)">
<g id="Clip path group">
<mask id="mask0_505_347" style="mask-type:luminance" maskUnits="userSpaceOnUse" x="0" y="0" width="36" height="36">
<g id="clip0">
<path id="Vector" d="M0 0H36V36H0V0Z" fill="white"/>
</g>
</mask>
<g mask="url(#mask0_505_347)">
<g id="Group">
<path id="Vector_2" d="M25.6374 27.4373C23.6118 29.4629 20.8646 30.6008 18 30.6008C15.1354 30.6008 12.3882 29.4629 10.3626 27.4373C8.33705 25.4117 7.1991 22.6645 7.1991 19.7999C7.1991 16.9353 8.33705 14.1881 10.3626 12.1625C10.3626 16.1999 10.8 19.7999 16.2 21.5999C16.2 17.9999 18 7.1999 20.7 5.3999C22.5 8.9999 23.5278 10.0547 25.6356 12.1625C26.6403 13.1642 27.4371 14.3547 27.9801 15.6654C28.5232 16.9761 28.8018 18.3812 28.8 19.7999C28.802 21.2185 28.5236 22.6235 27.9808 23.9342C27.4381 25.2449 26.6417 26.4354 25.6374 27.4373Z" fill="#F0BD2D" stroke="#374151" stroke-width="2" stroke-linecap="round" stroke-linejoin="round"/>
<path id="Vector_3" d="M14.1822 27.2175C14.6803 27.7333 15.2762 28.1446 15.935 28.4277C16.5938 28.7107 17.3024 28.8596 18.0194 28.8659C18.7364 28.8721 19.4475 28.7355 20.1111 28.4639C20.7748 28.1924 21.3777 27.7915 21.8847 27.2844C22.3917 26.7774 22.7927 26.1745 23.0642 25.5109C23.3357 24.8472 23.4724 24.1361 23.4661 23.4191C23.4599 22.7021 23.3109 21.9935 23.0279 21.3347C22.7449 20.6759 22.3335 20.08 21.8178 19.5819C20.7648 18.5271 20.25 17.9997 19.35 16.1997C18 17.0997 17.1 22.4997 17.1 24.2997C14.1822 24.2997 12.6 23.3997 12.6 23.3997C12.6 24.7821 13.1274 26.1645 14.1822 27.2175Z" fill="#F0BD2D"/>
</g>
</g>
</g>
</g>
<defs>
<clipPath id="clip0_505_347">
<rect width="36" height="36" fill="white"/>
</clipPath>
</defs>
</svg>
